HIERARCHY
ROOT hip
{
  OFFSET 0 90.174 2.4664
  CHANNELS 6 Xposition Yposition Zposition Zrotation Xrotation Yrotation
  JOINT abdomen
  {
    OFFSET 0 -1.186 -1.5018
    CHANNELS 6 Xposition Yposition Zposition Zrotation Xrotation Yrotation
    JOINT abdomen2
    {
      OFFSET 0 9.964 0.2134
      CHANNELS 6 Xposition Yposition Zposition Zrotation Xrotation Yrotation
      JOINT chest
      {
        OFFSET 0 13.134 -3.2573
        CHANNELS 6 Xposition Yposition Zposition Zrotation Xrotation Yrotation
        JOINT neck
        {
          OFFSET 0 20.686 -1.6905
          CHANNELS 6 Xposition Yposition Zposition Zrotation Xrotation Yrotation
          JOINT head
          {
            OFFSET 0 7.238 -0.1237
            CHANNELS 6 Xposition Yposition Zposition Zrotation Xrotation Yrotation
            End Site
            {
              OFFSET 0 0 0
            }
          }
        }
        JOINT lCollar
        {
          OFFSET 1.7069 20.075 5.0056
          CHANNELS 6 Xposition Yposition Zposition Zrotation Xrotation Yrotation
          JOINT lShldr
          {
            OFFSET 13.6458 -0.047 -4.849
            CHANNELS 6 Xposition Yposition Zposition Zrotation Xrotation Yrotation
            JOINT lForeArm
            {
              OFFSET 28.3255 -0.9759 2.2888
              CHANNELS 6 Xposition Yposition Zposition Zrotation Xrotation Yrotation
              JOINT lHand
              {
                OFFSET 22.1583 -0.53 10.8316
                CHANNELS 6 Xposition Yposition Zposition Zrotation Xrotation Yrotation
                JOINT lThumb1
                {
                  OFFSET 0.786 0.112 2.5817
                  CHANNELS 6 Xposition Yposition Zposition Zrotation Xrotation Yrotation
                  JOINT lThumb2
                  {
                    OFFSET 0.3601 -0.878 4.2331
                    CHANNELS 6 Xposition Yposition Zposition Zrotation Xrotation Yrotation
                    JOINT lThumb2_End
                    {
                      OFFSET 1.8127 -1.216 2.2227
                      CHANNELS 6 Xposition Yposition Zposition Zrotation Xrotation Yrotation
                      End Site
                      {
                        OFFSET 0.0181 -0.0122 0.0222
                      }
                    }
                  }
                }
                JOINT lCarpal1
                {
                  OFFSET 0.9571 1.114 1.7695
                  CHANNELS 6 Xposition Yposition Zposition Zrotation Xrotation Yrotation
                  JOINT lIndex1
                  {
                    OFFSET 4.1246 0.487 4.1451
                    CHANNELS 6 Xposition Yposition Zposition Zrotation Xrotation Yrotation
                    JOINT lIndex2
                    {
                      OFFSET 3.4052 -1.454 2.7682
                      CHANNELS 6 Xposition Yposition Zposition Zrotation Xrotation Yrotation
                      JOINT lIndex2_End
                      {
                        OFFSET 1.4531 -1.795 1.2713
                        CHANNELS 6 Xposition Yposition Zposition Zrotation Xrotation Yrotation
                        End Site
                        {
                          OFFSET 0.0145 -0.0179 0.0127
                        }
                      }
                    }
                  }
                  JOINT lMid1
                  {
                    OFFSET 5.6954 0.21 2.1184
                    CHANNELS 6 Xposition Yposition Zposition Zrotation Xrotation Yrotation
                    JOINT lMid2
                    {
                      OFFSET 3.9766 -1.54 2.3863
                      CHANNELS 6 Xposition Yposition Zposition Zrotation Xrotation Yrotation
                      JOINT lMid2_End
                      {
                        OFFSET 1.4042 -1.926 1.125
                        CHANNELS 6 Xposition Yposition Zposition Zrotation Xrotation Yrotation
                        End Site
                        {
                          OFFSET 0.014 -0.0193 0.0113
                        }
                      }
                    }
                  }
                }
                JOINT lCarpal2
                {
                  OFFSET 2.0956 0.66 -0.3894
                  CHANNELS 6 Xposition Yposition Zposition Zrotation Xrotation Yrotation
                  JOINT lRing1
                  {
                    OFFSET 5.0395 -0.09 2.4971
                    CHANNELS 6 Xposition Yposition Zposition Zrotation Xrotation Yrotation
                    JOINT lRing2
                    {
                      OFFSET 3.7921 -1.552 1.4806
                      CHANNELS 6 Xposition Yposition Zposition Zrotation Xrotation Yrotation
                      JOINT lRing2_End
                      {
                        OFFSET 1.4655 -1.808 0.9609
                        CHANNELS 6 Xposition Yposition Zposition Zrotation Xrotation Yrotation
                        End Site
                        {
                          OFFSET 0.0147 -0.0181 0.0096
                        }
                      }
                    }
                  }
                  JOINT lPinky1
                  {
                    OFFSET 4.9141 -1.269 0.3591
                    CHANNELS 6 Xposition Yposition Zposition Zrotation Xrotation Yrotation
                    JOINT lPinky2
                    {
                      OFFSET 3.1477 -1.685 0.8462
                      CHANNELS 6 Xposition Yposition Zposition Zrotation Xrotation Yrotation
                      JOINT lPinky2_End
                      {
                        OFFSET 0.8055 -1.585 0.7955
                        CHANNELS 6 Xposition Yposition Zposition Zrotation Xrotation Yrotation
                        End Site
                        {
                          OFFSET 0.0081 -0.0158 0.008
                        }
                      }
                    }
                  }
                }
              }
            }
          }
        }
        JOINT rCollar
        {
          OFFSET -1.7069 20.075 5.0056
          CHANNELS 6 Xposition Yposition Zposition Zrotation Xrotation Yrotation
          JOINT rShldr
          {
            OFFSET -13.6458 -0.047 -4.849
            CHANNELS 6 Xposition Yposition Zposition Zrotation Xrotation Yrotation
            JOINT rForeArm
            {
              OFFSET -28.3255 -0.9759 2.2888
              CHANNELS 6 Xposition Yposition Zposition Zrotation Xrotation Yrotation
              JOINT rHand
              {
                OFFSET -22.1583 -0.53 10.8316
                CHANNELS 6 Xposition Yposition Zposition Zrotation Xrotation Yrotation
                JOINT rThumb1
                {
                  OFFSET -0.786 0.112 2.5817
                  CHANNELS 6 Xposition Yposition Zposition Zrotation Xrotation Yrotation
                  JOINT rThumb2
                  {
                    OFFSET -0.3601 -0.878 4.2331
                    CHANNELS 6 Xposition Yposition Zposition Zrotation Xrotation Yrotation
                    JOINT rThumb2_End
                    {
                      OFFSET -1.8127 -1.216 2.2227
                      CHANNELS 6 Xposition Yposition Zposition Zrotation Xrotation Yrotation
                      End Site
                      {
                        OFFSET -0.0181 -0.0122 0.0222
                      }
                    }
                  }
                }
                JOINT rCarpal1
                {
                  OFFSET -0.9571 1.114 1.7695
                  CHANNELS 6 Xposition Yposition Zposition Zrotation Xrotation Yrotation
                  JOINT rIndex1
                  {
                    OFFSET -4.1246 0.487 4.1451
                    CHANNELS 6 Xposition Yposition Zposition Zrotation Xrotation Yrotation
                    JOINT rIndex2
                    {
                      OFFSET -3.4052 -1.454 2.7682
                      CHANNELS 6 Xposition Yposition Zposition Zrotation Xrotation Yrotation
                      JOINT rIndex2_End
                      {
                        OFFSET -1.4531 -1.795 1.2713
                        CHANNELS 6 Xposition Yposition Zposition Zrotation Xrotation Yrotation
                        End Site
                        {
                          OFFSET -0.0145 -0.018 0.0127
                        }
                      }
                    }
                  }
                  JOINT rMid1
                  {
                    OFFSET -5.6954 0.21 2.1184
                    CHANNELS 6 Xposition Yposition Zposition Zrotation Xrotation Yrotation
                    JOINT rMid2
                    {
                      OFFSET -3.9766 -1.54 2.3863
                      CHANNELS 6 Xposition Yposition Zposition Zrotation Xrotation Yrotation
                      JOINT rMid2_End
                      {
                        OFFSET -1.4042 -1.926 1.125
                        CHANNELS 6 Xposition Yposition Zposition Zrotation Xrotation Yrotation
                        End Site
                        {
                          OFFSET -0.014 -0.0193 0.0113
                        }
                      }
                    }
                  }
                }
                JOINT rCarpal2
                {
                  OFFSET -2.0956 0.66 -0.3894
                  CHANNELS 6 Xposition Yposition Zposition Zrotation Xrotation Yrotation
                  JOINT rRing1
                  {
                    OFFSET -5.0395 -0.09 2.4971
                    CHANNELS 6 Xposition Yposition Zposition Zrotation Xrotation Yrotation
                    JOINT rRing2
                    {
                      OFFSET -3.7921 -1.552 1.4806
                      CHANNELS 6 Xposition Yposition Zposition Zrotation Xrotation Yrotation
                      JOINT rRing2_End
                      {
                        OFFSET -1.4655 -1.808 0.9609
                        CHANNELS 6 Xposition Yposition Zposition Zrotation Xrotation Yrotation
                        End Site
                        {
                          OFFSET -0.0147 -0.0181 0.0096
                        }
                      }
                    }
                  }
                  JOINT rPinky1
                  {
                    OFFSET -4.9141 -1.269 0.3592
                    CHANNELS 6 Xposition Yposition Zposition Zrotation Xrotation Yrotation
                    JOINT rPinky2
                    {
                      OFFSET -3.1477 -1.685 0.8462
                      CHANNELS 6 Xposition Yposition Zposition Zrotation Xrotation Yrotation
                      JOINT rPinky2_End
                      {
                        OFFSET -0.8055 -1.585 0.7955
                        CHANNELS 6 Xposition Yposition Zposition Zrotation Xrotation Yrotation
                        End Site
                        {
                          OFFSET -0.0081 -0.0158 0.008
                        }
                      }
                    }
                  }
                }
              }
            }
          }
        }
      }
    }
  }
  JOINT lThigh
  {
    OFFSET 8.367 -8.2066 0.5982
    CHANNELS 6 Xposition Yposition Zposition Zrotation Xrotation Yrotation
    JOINT lShin
    {
      OFFSET 2.1923 -43.463 -0.4932
      CHANNELS 6 Xposition Yposition Zposition Zrotation Xrotation Yrotation
      JOINT lFoot
      {
        OFFSET 0.7333 -45.8593 -2.6451
        CHANNELS 6 Xposition Yposition Zposition Zrotation Xrotation Yrotation
        End Site
        {
          OFFSET 2.6618 -4.2699 12.3931
        }
      }
    }
  }
  JOINT rThigh
  {
    OFFSET -8.367 -8.2066 0.5982
    CHANNELS 6 Xposition Yposition Zposition Zrotation Xrotation Yrotation
    JOINT rShin
    {
      OFFSET -2.1923 -43.463 -0.4931
      CHANNELS 6 Xposition Yposition Zposition Zrotation Xrotation Yrotation
      JOINT rFoot
      {
        OFFSET -0.7333 -45.8593 -2.6451
        CHANNELS 6 Xposition Yposition Zposition Zrotation Xrotation Yrotation
        End Site
        {
          OFFSET -2.6618 -4.2699 12.3931
        }
      }
    }
  }
}
MOTION
Frames:	4
Frame Time:	0.0333333
-50.3666 4.54659 -3.96668 -90 1.98785e-016 3.50023 -8.88178e-016 -1.186 -1.5018 0.0552959 -1.85893 -0.250221 0 9.964 0.2134 0.102505 -3.71808 -0.499042 -8.88178e-016 13.134 -3.2573 0.102526 -3.71808 -0.499041 0 20.686 -1.6905 -2.43179e-005 18.3859 -1.66433e-008 0 7.238 -0.1237 -1.20981e-005 -46.4296 -8.92868e-006 1.7069 20.075 5.0056 -17.054 1.39308 27.7657 13.6458 -0.047 -4.849 0.416618 -1.62063 -74.3506 28.3255 -0.9759 2.2888 -21.6073 -0.411365 -53.4105 22.1583 -0.53 10.8316 -35.424 -39.7902 -12.3778 0.786 0.112 2.5817 -9.54166e-015 2.38542e-015 -4.77083e-015 0.3601 -0.878 4.2331 -3.18055e-015 2.38542e-015 -3.18055e-015 1.8127 -1.216 2.2227 9.54166e-015 3.18055e-015 -1.59028e-015 0.9571 1.114 1.7695 -9.54166e-015 -7.95139e-016 -4.77083e-015 4.1246 0.487 4.1451 7.72434e-032 7.95139e-016 -5.56597e-015 3.4052 -1.454 2.7682 -6.36111e-015 7.95139e-016 -3.97569e-015 1.4531 -1.795 1.2713 -1.27222e-014 7.95139e-016 -1.59028e-015 5.6954 0.21 2.1184 7.72434e-032 7.95139e-016 -5.56597e-015 3.9766 -1.54 2.3863 -6.36111e-015 7.95139e-016 -3.97569e-015 1.4042 -1.926 1.125 -1.27222e-014 7.95139e-016 -1.59028e-015 2.0956 0.66 -0.3894 -9.54166e-015 -7.95139e-016 -4.77083e-015 5.0395 -0.09 2.4971 7.72434e-032 7.95139e-016 -5.56597e-015 3.7921 -1.552 1.4806 -6.36111e-015 7.95139e-016 -3.97569e-015 1.4655 -1.808 0.9609 -1.27222e-014 7.95139e-016 -1.59028e-015 4.9141 -1.269 0.3591 7.72434e-032 7.95139e-016 -5.56597e-015 3.1477 -1.685 0.8462 -6.36111e-015 7.95139e-016 -3.97569e-015 0.8055 -1.585 0.7955 -1.27222e-014 7.95139e-016 -1.59028e-015 -1.7069 20.075 5.0056 15.9847 -1.64478 -32.0961 -13.6458 -0.047 -4.849 -0.591083 -1.54366 73.0713 -28.3255 -0.9759 2.2888 19.1568 -4.59412 44.5665 -22.1583 -0.53 10.8316 49.0893 -30.5803 22.0721 -0.786 0.112 2.5817 1.27222e-014 1.98785e-015 7.95139e-015 -0.3601 -0.878 4.2331 3.18055e-015 3.97569e-016 -0 -1.8127 -1.216 2.2227 9.54166e-015 -7.95139e-016 7.95139e-015 -0.9571 1.114 1.7695 1.10348e-032 -3.97569e-016 1.59028e-015 -4.1246 0.487 4.1451 6.36111e-015 3.57812e-015 1.59028e-015 -3.4052 -1.454 2.7682 1.27222e-014 3.57812e-015 1.59028e-015 -1.4531 -1.795 1.2713 3.18055e-015 3.18055e-015 2.38542e-015 -5.6954 0.21 2.1184 6.36111e-015 3.57812e-015 1.59028e-015 -3.9766 -1.54 2.3863 1.27222e-014 3.57812e-015 1.59028e-015 -1.4042 -1.926 1.125 3.18055e-015 3.18055e-015 2.38542e-015 -2.0956 0.66 -0.3894 1.10348e-032 -3.97569e-016 1.59028e-015 -5.0395 -0.09 2.4971 6.36111e-015 3.57812e-015 1.59028e-015 -3.7921 -1.552 1.4806 1.27222e-014 3.57812e-015 1.59028e-015 -1.4655 -1.808 0.9609 3.18055e-015 3.18055e-015 2.38542e-015 -4.9141 -1.269 0.3592 6.36111e-015 3.57812e-015 1.59028e-015 -3.1477 -1.685 0.8462 1.27222e-014 3.57812e-015 1.59028e-015 -0.8055 -1.585 0.7955 3.18055e-015 3.18055e-015 2.38542e-015 8.367 -8.2066 0.5982 -134.811 -86.6006 -143.455 2.1923 -43.463 -0.4932 -26.7282 78.1975 40.538 0.7333 -45.8593 -2.6451 23.2863 26.5549 -27.7931 -8.367 -8.2066 0.5982 -101.861 -19.1242 -73.2857 -2.1923 -43.463 -0.4931 80.4047 8.3085 -64.7572 -0.7333 -45.8593 -2.6451 0.379441 49.7801 15.947 
-50.0749 4.7657 -4.47207 -90 1.98785e-016 3.50023 -8.88178e-016 -1.186 -1.5018 0.0545108 -1.70997 -0.250656 0 9.964 0.2134 0.101624 -3.42016 -0.500025 -8.88178e-016 13.134 -3.2573 0.101617 -3.42016 -0.500026 -8.88178e-016 20.686 -1.6905 -2.14487e-005 20.1584 2.6942e-005 0 7.238 -0.1237 2.09988e-007 -48.2493 5.74343e-007 1.7069 20.075 5.0056 -16.9938 1.17509 26.7126 13.6458 -0.047 -4.849 0.439299 -1.57501 -74.0085 28.3255 -0.9759 2.2888 -21.3904 -1.00518 -51.745 22.1583 -0.53 10.8316 -36.2197 -38.9329 -13.7094 0.786 0.112 2.5817 -3.18055e-015 1.59028e-015 6.36111e-015 0.3601 -0.878 4.2331 6.36111e-015 -7.95139e-016 6.36111e-015 1.8127 -1.216 2.2227 1.27222e-014 -2.38542e-015 7.95139e-015 0.9571 1.114 1.7695 -3.18055e-015 3.18055e-015 3.18055e-015 4.1246 0.487 4.1451 -1.59028e-014 7.15625e-015 1.19271e-014 3.4052 -1.454 2.7682 9.54166e-015 0 7.15625e-015 1.4531 -1.795 1.2713 -3.18055e-015 2.38542e-015 5.56597e-015 5.6954 0.21 2.1184 -1.59028e-014 7.15625e-015 1.19271e-014 3.9766 -1.54 2.3863 9.54166e-015 0 7.15625e-015 1.4042 -1.926 1.125 -3.18055e-015 2.38542e-015 5.56597e-015 2.0956 0.66 -0.3894 -3.18055e-015 3.18055e-015 3.18055e-015 5.0395 -0.09 2.4971 -1.59028e-014 7.15625e-015 1.19271e-014 3.7921 -1.552 1.4806 9.54166e-015 0 7.15625e-015 1.4655 -1.808 0.9609 -3.18055e-015 2.38542e-015 5.56597e-015 4.9141 -1.269 0.3591 -1.59028e-014 7.15625e-015 1.19271e-014 3.1477 -1.685 0.8462 9.54166e-015 0 7.15625e-015 0.8055 -1.585 0.7955 -3.18055e-015 2.38542e-015 5.56597e-015 -1.7069 20.075 5.0056 16.0025 -1.7173 -30.8239 -13.6458 -0.047 -4.849 -0.600254 -1.49116 72.8333 -28.3255 -0.9759 2.2888 18.9008 -4.99055 43.2662 -22.1583 -0.53 10.8316 48.9677 -30.1215 22.6555 -0.786 0.112 2.5817 -1.27222e-014 7.95139e-016 -0 -0.3601 -0.878 4.2331 0 0 -3.97569e-015 -1.8127 -1.216 2.2227 -3.18055e-015 -1.19271e-015 1.59028e-015 -0.9571 1.114 1.7695 -1.27222e-014 7.95139e-016 -0 -4.1246 0.487 4.1451 -3.18055e-015 -4.77083e-015 2.38542e-015 -3.4052 -1.454 2.7682 -3.18055e-015 -1.59028e-015 -2.38542e-015 -1.4531 -1.795 1.2713 5.51738e-032 1.98785e-015 -1.59028e-015 -5.6954 0.21 2.1184 -3.18055e-015 -4.77083e-015 2.38542e-015 -3.9766 -1.54 2.3863 -3.18055e-015 -1.59028e-015 -2.38542e-015 -1.4042 -1.926 1.125 5.51738e-032 1.98785e-015 -1.59028e-015 -2.0956 0.66 -0.3894 -1.27222e-014 7.95139e-016 -0 -5.0395 -0.09 2.4971 -3.18055e-015 -4.77083e-015 2.38542e-015 -3.7921 -1.552 1.4806 -3.18055e-015 -1.59028e-015 -2.38542e-015 -1.4655 -1.808 0.9609 5.51738e-032 1.98785e-015 -1.59028e-015 -4.9141 -1.269 0.3592 -3.18055e-015 -4.77083e-015 2.38542e-015 -3.1477 -1.685 0.8462 -3.18055e-015 -1.59028e-015 -2.38542e-015 -0.8055 -1.585 0.7955 5.51738e-032 1.98785e-015 -1.59028e-015 8.367 -8.2066 0.5982 -128.265 -87.1019 -137.11 2.1923 -43.463 -0.4932 -26.0058 76.8192 39.939 0.7333 -45.8593 -2.6451 23.5114 27.1641 -28.2215 -8.367 -8.2066 0.5982 -101.546 -19.7755 -73.2111 -2.1923 -43.463 -0.4931 80.4841 8.31799 -64.8983 -0.7333 -45.8593 -2.6451 0.245496 49.7898 16.1402 
-49.8143 4.96107 -4.9238 -90 1.98785e-016 3.50023 0 -1.186 -1.5018 0.0538304 -1.57677 -0.251032 0 9.964 0.2134 0.100817 -3.15378 -0.50087 1.77636e-015 13.134 -3.2573 0.100788 -3.15378 -0.500872 -8.88178e-016 20.686 -1.6905 -7.87134e-005 21.7474 1.66583e-005 -8.88178e-016 7.238 -0.1237 -6.23636e-006 -49.8818 -3.85078e-006 1.7069 20.075 5.0056 -16.9429 0.979232 25.7707 13.6458 -0.047 -4.849 0.459347 -1.53439 -73.7029 28.3255 -0.9759 2.2888 -21.1822 -1.52337 -50.2472 22.1583 -0.53 10.8316 -36.9028 -38.1532 -14.8749 0.786 0.112 2.5817 6.36111e-015 0 1.59028e-015 0.3601 -0.878 4.2331 -3.23357e-006 1.52971e-006 -1.59925e-007 1.8127 -1.216 2.2227 -1.2586e-006 -9.87486e-007 -5.62193e-007 0.9571 1.114 1.7695 -1.32417e-031 2.38542e-015 3.18055e-015 4.1246 0.487 4.1451 6.36111e-015 0 -2.38542e-015 3.4052 -1.454 2.7682 -3.23357e-006 1.52971e-006 -1.59925e-007 1.4531 -1.795 1.2713 -1.2586e-006 -9.87486e-007 -5.62193e-007 5.6954 0.21 2.1184 6.36111e-015 0 -2.38542e-015 3.9766 -1.54 2.3863 -3.23357e-006 1.52971e-006 -1.59925e-007 1.4042 -1.926 1.125 -1.2586e-006 -9.87486e-007 -5.62193e-007 2.0956 0.66 -0.3894 -1.32417e-031 2.38542e-015 3.18055e-015 5.0395 -0.09 2.4971 6.36111e-015 0 -2.38542e-015 3.7921 -1.552 1.4806 -3.23357e-006 1.52971e-006 -1.59925e-007 1.4655 -1.808 0.9609 -1.2586e-006 -9.87486e-007 -5.62193e-007 4.9141 -1.269 0.3591 6.36111e-015 0 -2.38542e-015 3.1477 -1.685 0.8462 -3.23357e-006 1.52971e-006 -1.59925e-007 0.8055 -1.585 0.7955 -1.2586e-006 -9.87486e-007 -5.62193e-007 -1.7069 20.075 5.0056 16.0197 -1.78206 -29.6852 -13.6458 -0.047 -4.849 -0.60828 -1.4444 72.6207 -28.3255 -0.9759 2.2888 18.6641 -5.33821 42.0994 -22.1583 -0.53 10.8316 48.8553 -29.7123 23.1758 -0.786 0.112 2.5817 1.90833e-014 -2.38542e-015 3.97569e-015 -0.3601 -0.878 4.2331 9.54166e-015 -3.18055e-015 8.74653e-015 -1.8127 -1.216 2.2227 1.59028e-014 -3.57812e-015 3.18055e-015 -0.9571 1.114 1.7695 1.27222e-014 1.98785e-015 -2.38542e-015 -4.1246 0.487 4.1451 6.36111e-015 -8.74653e-015 3.18055e-015 -3.4052 -1.454 2.7682 1.59028e-014 7.95139e-016 9.54166e-015 -1.4531 -1.795 1.2713 1.27222e-014 -2.78299e-015 4.77083e-015 -5.6954 0.21 2.1184 6.36111e-015 -8.74653e-015 3.18055e-015 -3.9766 -1.54 2.3863 1.59028e-014 7.95139e-016 9.54166e-015 -1.4042 -1.926 1.125 1.27222e-014 -2.78299e-015 4.77083e-015 -2.0956 0.66 -0.3894 1.27222e-014 1.98785e-015 -2.38542e-015 -5.0395 -0.09 2.4971 6.36111e-015 -8.74653e-015 3.18055e-015 -3.7921 -1.552 1.4806 1.59028e-014 7.95139e-016 9.54166e-015 -1.4655 -1.808 0.9609 1.27222e-014 -2.78299e-015 4.77083e-015 -4.9141 -1.269 0.3592 6.36111e-015 -8.74653e-015 3.18055e-015 -3.1477 -1.685 0.8462 1.59028e-014 7.95139e-016 9.54166e-015 -0.8055 -1.585 0.7955 1.27222e-014 -2.78299e-015 4.77083e-015 8.367 -8.2066 0.5982 -120.321 -87.5058 -129.345 2.1923 -43.463 -0.4932 -25.4693 75.5847 39.513 0.7333 -45.8593 -2.6451 23.7187 27.7074 -28.6085 -8.367 -8.2066 0.5982 -101.247 -20.3568 -73.1377 -2.1923 -43.463 -0.4931 80.5552 8.32653 -65.0263 -0.7333 -45.8593 -2.6451 0.123555 49.7985 16.3145 
-49.5538 5.15611 -5.37603 -90 1.98785e-016 3.50023 0 -1.186 -1.5018 0.0531509 -1.44358 -0.251413 8.88178e-016 9.964 0.2134 0.0999744 -2.88738 -0.501724 8.88178e-016 13.134 -3.2573 0.100007 -2.88738 -0.501726 0 20.686 -1.6905 -5.88616e-006 23.3415 2.61692e-005 0 7.238 -0.1237 -1.87946e-005 -51.52 -4.7012e-006 1.7069 20.075 5.0056 -16.8952 0.782651 24.828 13.6458 -0.047 -4.849 0.479163 -1.49365 -73.3973 28.3255 -0.9759 2.2888 -20.9595 -2.03817 -48.7423 22.1583 -0.53 10.8316 -37.5597 -37.3616 -16.0184 0.786 0.112 2.5817 -1.25865e-006 -9.87549e-007 -5.61788e-007 0.3601 -0.878 4.2331 -1.25865e-006 -9.87549e-007 -5.61788e-007 1.8127 -1.216 2.2227 -6.36111e-015 -5.56597e-015 7.95139e-016 0.9571 1.114 1.7695 -3.18055e-015 -1.59028e-015 -5.56597e-015 4.1246 0.487 4.1451 -1.25865e-006 -9.87549e-007 -5.61788e-007 3.4052 -1.454 2.7682 -1.25865e-006 -9.87549e-007 -5.61788e-007 1.4531 -1.795 1.2713 -3.18055e-015 -8.74653e-015 -7.95139e-015 5.6954 0.21 2.1184 -1.25865e-006 -9.87549e-007 -5.61788e-007 3.9766 -1.54 2.3863 -1.25865e-006 -9.87549e-007 -5.61788e-007 1.4042 -1.926 1.125 -3.18055e-015 -8.74653e-015 -7.95139e-015 2.0956 0.66 -0.3894 -3.18055e-015 -1.59028e-015 -5.56597e-015 5.0395 -0.09 2.4971 -1.25865e-006 -9.87549e-007 -5.61788e-007 3.7921 -1.552 1.4806 -1.25865e-006 -9.87549e-007 -5.61788e-007 1.4655 -1.808 0.9609 -3.18055e-015 -8.74653e-015 -7.95139e-015 4.9141 -1.269 0.3591 -1.25865e-006 -9.87549e-007 -5.61788e-007 3.1477 -1.685 0.8462 -1.25865e-006 -9.87549e-007 -5.61788e-007 0.8055 -1.585 0.7955 -3.18055e-015 -8.74653e-015 -7.95139e-015 -1.7069 20.075 5.0056 16.0383 -1.84622 -28.5445 -13.6458 -0.047 -4.849 -0.616142 -1.39762 72.4081 -28.3255 -0.9759 2.2888 18.4198 -5.68168 40.9282 -22.1583 -0.53 10.8316 48.7389 -29.3037 23.6953 -0.786 0.112 2.5817 -6.62086e-032 -1.59028e-015 -2.38542e-015 -0.3601 -0.878 4.2331 6.36111e-015 -3.18055e-015 7.95139e-016 -1.8127 -1.216 2.2227 8.82781e-032 1.59028e-015 -3.18055e-015 -0.9571 1.114 1.7695 1.32417e-031 3.18055e-015 -2.38542e-015 -4.1246 0.487 4.1451 9.54166e-015 -8.74653e-015 9.54166e-015 -3.4052 -1.454 2.7682 -3.18055e-015 -3.97569e-015 -3.18055e-015 -1.4531 -1.795 1.2713 -0 -5.96354e-015 -0 -5.6954 0.21 2.1184 9.54166e-015 -8.74653e-015 9.54166e-015 -3.9766 -1.54 2.3863 -3.18055e-015 -3.97569e-015 -3.18055e-015 -1.4042 -1.926 1.125 -0 -5.96354e-015 -0 -2.0956 0.66 -0.3894 1.32417e-031 3.18055e-015 -2.38542e-015 -5.0395 -0.09 2.4971 9.54166e-015 -8.74653e-015 9.54166e-015 -3.7921 -1.552 1.4806 -3.18055e-015 -3.97569e-015 -3.18055e-015 -1.4655 -1.808 0.9609 -0 -5.96354e-015 -0 -4.9141 -1.269 0.3592 9.54166e-015 -8.74653e-015 9.54166e-015 -3.1477 -1.685 0.8462 -3.18055e-015 -3.97569e-015 -3.18055e-015 -0.8055 -1.585 0.7955 -0 -5.96354e-015 -0 8.367 -8.2066 0.5982 -109.653 -87.8447 -118.854 2.1923 -43.463 -0.4932 -25.0097 74.3479 39.1651 0.7333 -45.8593 -2.6451 23.9325 28.2498 -29.0002 -8.367 -8.2066 0.5982 -100.946 -20.9387 -73.0608 -2.1923 -43.463 -0.4931 80.6259 8.3351 -65.1547 -0.7333 -45.8593 -2.6451 0.000846917 49.8068 16.4895 
